<svg width="18" height="18" viewBox="0 0 18 18" fill="none" xmlns="http://www.w3.org/2000/svg">
<path d="M17.0009 12.8661L13.1727 11.2255C13.0092 11.1558 12.8275 11.1411 12.6548 11.1836C12.4822 11.2262 12.3281 11.3236 12.2157 11.4613L10.5204 13.5326C7.85967 12.2781 5.71843 10.1369 4.46395 7.47623L6.53527 5.78089C6.67325 5.66867 6.77091 5.51454 6.81347 5.34186C6.85602 5.16917 6.84115 4.98732 6.77112 4.82384L5.13046 0.995646C5.0536 0.819415 4.91765 0.675529 4.74605 0.588798C4.57446 0.502066 4.37799 0.477926 4.1905 0.52054L0.635754 1.34087C0.454998 1.38261 0.293727 1.48438 0.178262 1.62958C0.0627978 1.77478 -4.16388e-05 1.95483 2.07003e-08 2.14034C2.07003e-08 10.9076 7.10608 18 15.8597 18C16.0452 18.0001 16.2254 17.9373 16.3706 17.8218C16.5159 17.7064 16.6177 17.5451 16.6595 17.3642L17.4798 13.8095C17.5221 13.6211 17.4975 13.4238 17.4101 13.2517C17.3227 13.0795 17.178 12.9431 17.0009 12.8661Z" fill="white"/>
</svg>
